<svg xmlns="http://www.w3.org/2000/svg" viewBox="0 0 1920 1080" role="img" aria-label="Hoo Browser owl wallpaper">
  <defs>
    <radialGradient id="sky" cx="50%" cy="52%" r="85%">
      <stop offset="0" stop-color="#172126"/>
      <stop offset="0.45" stop-color="#0E1111"/>
      <stop offset="1" stop-color="#050706"/>
    </radialGradient>
    <radialGradient id="sun" cx="50%" cy="84%" r="45%">
      <stop offset="0" stop-color="#FF6A00" stop-opacity="0.75"/>
      <stop offset="0.28" stop-color="#FF6A00" stop-opacity="0.18"/>
      <stop offset="1" stop-color="#FF6A00" stop-opacity="0"/>
    </radialGradient>
    <linearGradient id="orange" x1="0" y1="0" x2="1" y2="1"><stop offset="0" stop-color="#FF8A19"/><stop offset="1" stop-color="#FF6A00"/></linearGradient>
    <filter id="softShadow"><feDropShadow dx="0" dy="26" stdDeviation="26" flood-color="#000" flood-opacity="0.55"/></filter>
  </defs>
  <rect width="1920" height="1080" fill="url(#sky)"/>
  <rect width="1920" height="1080" fill="url(#sun)"/>
  <g opacity="0.28" fill="#F2F2EF">
    <circle cx="260" cy="150" r="2"/><circle cx="520" cy="230" r="1.6"/><circle cx="820" cy="130" r="2"/><circle cx="1280" cy="190" r="1.5"/><circle cx="1510" cy="120" r="2"/><circle cx="1710" cy="270" r="1.8"/><circle cx="1080" cy="330" r="1.4"/>
  </g>
  <path d="M0 840c170-95 350-138 540-90 153 39 270 25 420-38 205-86 376-70 560 36 130 75 251 72 400 42v290H0V840Z" fill="#07100C"/>
  <path d="M0 905c260-115 470-130 690-38 180 75 350 71 543 0 230-84 422-76 687 28v185H0V905Z" fill="#030504"/>
  <path d="M520 736c220 19 501 23 856-4 90-7 174-19 266-32 18-3 28 24 11 32-370 161-750 169-1140 31-22-8-16-29 7-27Z" fill="#4A2E18"/>
  <path d="M1324 714c74-80 128-104 174-116-26 46-64 87-133 126l-41-10Z" fill="#3DBB78" opacity="0.62"/>
  <path d="M1374 726c58-33 109-41 155-33-35 27-82 45-140 47l-15-14Z" fill="#3DBB78" opacity="0.58"/>
  <g transform="translate(760 188) scale(1.05)" filter="url(#softShadow)">
    <ellipse cx="200" cy="278" rx="150" ry="188" fill="#171B1D"/>
    <path d="M44 70c58 12 104 38 139 83-68-8-112-35-139-83Z" fill="url(#orange)"/>
    <path d="M356 70c-58 12-104 38-139 83 68-8 112-35 139-83Z" fill="url(#orange)"/>
    <path d="M70 166c39-74 97-104 130-105 33 1 91 31 130 105-48-22-88-17-130 10-42-27-82-32-130-10Z" fill="#202426"/>
    <path d="M86 210c32-83 80-126 114-126s82 43 114 126c-29 91-68 139-114 139s-85-48-114-139Z" fill="#202426"/>
    <ellipse cx="200" cy="254" rx="84" ry="112" fill="#F2F2EF" opacity="0.9"/>
    <circle cx="148" cy="210" r="58" fill="#F2F2EF"/>
    <circle cx="252" cy="210" r="58" fill="#F2F2EF"/>
    <circle cx="148" cy="210" r="35" fill="#FF6A00"/><circle cx="252" cy="210" r="35" fill="#FF6A00"/>
    <circle cx="148" cy="210" r="26" fill="#101415"/><circle cx="252" cy="210" r="26" fill="#101415"/>
    <circle cx="137" cy="197" r="9" fill="#fff"/><circle cx="241" cy="197" r="9" fill="#fff"/>
    <path d="M200 232l-22 32c14 11 30 11 44 0l-22-32Z" fill="url(#orange)"/>
    <path d="M130 130c33 13 53 28 70 48 17-20 37-35 70-48-8 35-30 62-70 82-40-20-62-47-70-82Z" fill="url(#orange)"/>
    <path d="M74 270c54 45 93 71 126 80-59 51-123 33-160-31l34-49Z" fill="#111415"/>
    <path d="M272 270c-13 36-33 62-72 80 58 50 122 33 160-31l-88-49Z" fill="#111415"/>
    <path d="M250 318h24v16h-24v-16Zm8-29h16v68h-16v-68Z" fill="#FF6A00"/>
    <path d="M145 462c38 21 74 20 110 0" stroke="#FF6A00" stroke-width="12" stroke-linecap="round" opacity="0.55"/>
  </g>
  <text x="80" y="965" fill="#F2F2EF" opacity="0.74" font-family="Inter, Arial, sans-serif" font-size="22" letter-spacing="8">OWL-GUIDED · PRIVACY-FIRST · WEB FREEDOM</text>
</svg>
