<svg xmlns="http://www.w3.org/2000/svg" viewBox="0 0 512 512" role="img" aria-label="Hoo Browser owl icon">
  <defs>
    <radialGradient id="bg" cx="45%" cy="30%" r="80%">
      <stop offset="0" stop-color="#2A2F33"/>
      <stop offset="1" stop-color="#0E1111"/>
    </radialGradient>
    <linearGradient id="orange" x1="0" y1="0" x2="1" y2="1">
      <stop offset="0" stop-color="#FF8A19"/>
      <stop offset="1" stop-color="#FF6A00"/>
    </linearGradient>
    <filter id="shadow" x="-20%" y="-20%" width="140%" height="140%">
      <feDropShadow dx="0" dy="18" stdDeviation="18" flood-color="#000" flood-opacity="0.45"/>
    </filter>
  </defs>
  <rect width="512" height="512" rx="112" fill="url(#bg)"/>
  <circle cx="256" cy="252" r="168" fill="#171B1D" filter="url(#shadow)"/>
  <path d="M73 113c62 10 112 35 151 80C156 187 104 160 73 113Z" fill="url(#orange)"/>
  <path d="M439 113c-62 10-112 35-151 80 68-6 120-33 151-80Z" fill="url(#orange)"/>
  <path d="M109 180c41-79 113-110 147-111 34 1 106 32 147 111-53-25-98-21-147 7-49-28-94-32-147-7Z" fill="#202426"/>
  <path d="M114 222c41-86 108-115 142-115s101 29 142 115c-31 102-85 160-142 160s-111-58-142-160Z" fill="#202426"/>
  <path d="M165 216c20-54 58-82 91-82s71 28 91 82c-21 62-55 98-91 98s-70-36-91-98Z" fill="#F2F2EF"/>
  <circle cx="195" cy="224" r="64" fill="#F2F2EF"/>
  <circle cx="317" cy="224" r="64" fill="#F2F2EF"/>
  <circle cx="195" cy="224" r="39" fill="#FF6A00"/>
  <circle cx="317" cy="224" r="39" fill="#FF6A00"/>
  <circle cx="195" cy="224" r="29" fill="#101415"/>
  <circle cx="317" cy="224" r="29" fill="#101415"/>
  <circle cx="183" cy="211" r="10" fill="#fff" opacity="0.92"/>
  <circle cx="305" cy="211" r="10" fill="#fff" opacity="0.92"/>
  <path d="M256 247l-24 33c15 12 33 12 48 0l-24-33Z" fill="url(#orange)"/>
  <path d="M178 141c33 12 58 26 78 46 20-20 45-34 78-46-11 36-35 62-78 81-43-19-67-45-78-81Z" fill="url(#orange)"/>
  <path d="M184 338c47 36 97 36 144 0-8 50-36 83-72 83s-64-33-72-83Z" fill="#3A2F24" opacity="0.58"/>
  <path d="M318 334h28v18h-28v-18Zm10-34h18v76h-18v-76Z" fill="#FF6A00" opacity="0.9"/>
</svg>
